<svg xmlns="http://www.w3.org/2000/svg" width="40" height="40" viewBox="0 0 40 40"><defs><style>.a{fill:none;}.b{fill:currentColor;}</style></defs><g transform="translate(-608 -3122)"><rect class="a" width="40" height="40" rx="8" transform="translate(608 3122)"/><rect class="a" width="22" height="22" transform="translate(617 3131)"/><path class="b" d="M70.653,65.414a.056.056,0,0,0-.029-.026A18.149,18.149,0,0,0,66.146,64a.068.068,0,0,0-.072.034,12.625,12.625,0,0,0-.557,1.145,16.756,16.756,0,0,0-5.03,0,11.582,11.582,0,0,0-.566-1.145A.071.071,0,0,0,59.849,64a18.1,18.1,0,0,0-4.478,1.388.064.064,0,0,0-.029.025,18.554,18.554,0,0,0-3.25,12.517.075.075,0,0,0,.029.051,18.246,18.246,0,0,0,5.493,2.776.071.071,0,0,0,.077-.025A13.028,13.028,0,0,0,58.814,78.9a.07.07,0,0,0-.038-.1,12.016,12.016,0,0,1-1.716-.818.071.071,0,0,1-.007-.117q.173-.13.341-.267a.068.068,0,0,1,.071-.01,13.015,13.015,0,0,0,11.056,0,.068.068,0,0,1,.072.009q.168.138.342.268a.07.07,0,0,1-.006.117,11.278,11.278,0,0,1-1.717.817.07.07,0,0,0-.037.1A14.631,14.631,0,0,0,68.3,80.731a.07.07,0,0,0,.077.026,18.185,18.185,0,0,0,5.5-2.776.07.07,0,0,0,.029-.051A18.431,18.431,0,0,0,70.653,65.414Zm-11.3,10.018a2.231,2.231,0,0,1,0-4.433,2.231,2.231,0,0,1,0,4.433Zm7.31,0a2.231,2.231,0,0,1,0-4.433,2.231,2.231,0,0,1,0,4.433Z" transform="translate(565 3070.001)"/></g></svg>