<svg xmlns="http://www.w3.org/2000/svg" width="40" height="40" viewBox="0 0 40 40"><defs><style>.a{fill:none;}.b{fill:currentColor;stroke:rgba(0,0,0,0);stroke-miterlimit:10;}</style></defs><g transform="translate(-504 -3122)"><rect class="a" width="40" height="40" rx="8" transform="translate(504 3122)"/><g transform="translate(0 -225)"><rect class="a" width="22" height="22" transform="translate(513 3356)"/><path class="b" d="M13428.673-1000.374a1.6,1.6,0,0,0,.055.317h0c-3.095-1.709-5.118-2.848-5.857-3.29-1.333-.8-2.865-1.948-2.865-3.728a3.326,3.326,0,0,1,1.6-2.623l.071-.034c1.91-.937,8.25-4.047,9.5-4.793a3.125,3.125,0,0,1,1.616-.476,2.4,2.4,0,0,1,.962.187l.057.026c1.281.611,5.541,2.63,6.535,3.129a1.794,1.794,0,0,1,1.147,1.431c-.076.037-8.9,4.59-10.478,5.444a2.844,2.844,0,0,1-1.338.382,1.545,1.545,0,0,1-1.084-.382l-5.443-2.866a1.438,1.438,0,0,0-.953-.367,1.517,1.517,0,0,0-.479.083c-.933,1.274-.123,2.125.529,2.806.049.049.09.1.135.142a60.063,60.063,0,0,0,6.527,3.616,1.669,1.669,0,0,1,1.424-.8,1.667,1.667,0,0,1,1.378.729,1.72,1.72,0,0,0-.284-.32l7.262-4.009a1.679,1.679,0,0,0,.779,1.139l-7.467,4.189h0a1.668,1.668,0,0,1-1.667,1.608A1.669,1.669,0,0,1,13428.673-1000.374Zm1.107-.129a.554.554,0,0,0,.555.555.554.554,0,0,0,.555-.555.554.554,0,0,0-.555-.555A.554.554,0,0,0,13429.78-1000.5Zm-1.107.128a.191.191,0,0,0,0-.033A.191.191,0,0,1,13428.673-1000.375Zm0-.056v0Zm3.334-.041h0v0Zm0-.031Zm-3.336,0Zm3.335-.044v0Zm-3.333-.007v0Zm3.332-.038s0,0,0-.007S13432-1000.595,13432-1000.592Zm-3.329-.012c0-.007,0-.015,0-.022S13428.672-1000.612,13428.672-1000.6Zm3.325-.033v0Zm-3.322-.01a1.639,1.639,0,0,1,.217-.688A1.612,1.612,0,0,0,13428.675-1000.648Zm3.1-.7a.01.01,0,0,1,0,0A.01.01,0,0,0,13431.771-1001.349Zm-.021-.034-.006-.011Zm-.02-.031-.012-.018Zm6.937-4.643a1.666,1.666,0,0,1,1.664-1.667,1.667,1.667,0,0,1,1.668,1.667,1.666,1.666,0,0,1-1.668,1.664A1.666,1.666,0,0,1,13438.668-1006.056Zm1.11,0a.555.555,0,0,0,.554.555.557.557,0,0,0,.559-.555.557.557,0,0,0-.559-.555A.555.555,0,0,0,13439.778-1006.056Z" transform="translate(-12907.001 4374.215)"/></g></g></svg>