<svg xmlns="http://www.w3.org/2000/svg" width="40" height="40" viewBox="0 0 40 40"><defs><style>.a{fill:none;}.b{fill:currentColor;}</style></defs><g transform="translate(-556 -3122)"><rect class="a" width="40" height="40" rx="8" transform="translate(556 3122)"/><g transform="translate(0 -225)"><rect class="a" width="22" height="22" transform="translate(565 3356)"/><path class="b" d="M127.156,67.566a4.273,4.273,0,0,0-.112-3.372,5.639,5.639,0,0,0-3.484,1.349,12.87,12.87,0,0,0-6.744,0,5.639,5.639,0,0,0-3.484-1.349,4.273,4.273,0,0,0-.112,3.372s-1.8,1.686-1.124,5.283A5.29,5.29,0,0,0,117.6,77.12a2.2,2.2,0,0,0-.674,1.8,2.79,2.79,0,0,1-2.248.225,3.608,3.608,0,0,1-1.686-1.574s-1.124-1.461-2.248-.9c0,0-.337.337.9.9a18.524,18.524,0,0,1,1.236,2.136c.337.787,2.136,1.461,3.934,1.012V83.3s0,.225-.45.337-.45.337-.225.337h8.093c.225,0,.225-.225-.225-.337s-.45-.337-.45-.337V80.717s.01-1.348,0-1.8a2.621,2.621,0,0,0-.787-1.8,5.29,5.29,0,0,0,5.508-4.271C128.955,69.252,127.156,67.566,127.156,67.566Z" transform="translate(456.433 3292.924)"/></g></g></svg>