<svg width="24" height="24" viewBox="0 0 24 24" fill="none" xmlns="http://www.w3.org/2000/svg">
<g id="Frame">
<path id="Vector" d="M20.7 5.26162H3.38203C2.80313 5.26162 2.33203 4.79053 2.33203 4.21162C2.33203 3.63271 2.80313 3.16162 3.38203 3.16162H20.7C21.2789 3.16162 21.75 3.63271 21.75 4.21162C21.75 4.79053 21.2789 5.26162 20.7 5.26162ZM20.7 12.8718H3.38203C2.80313 12.8718 2.33203 12.4007 2.33203 11.8218C2.33203 11.2429 2.80313 10.7718 3.38203 10.7718H20.7C21.2789 10.7718 21.75 11.2429 21.75 11.8218C21.75 12.4007 21.2789 12.8718 20.7 12.8718ZM20.7 20.4796H3.38203C2.80313 20.4796 2.33203 20.0085 2.33203 19.4296C2.33203 18.8507 2.80313 18.3796 3.38203 18.3796H20.7C21.2789 18.3796 21.75 18.8507 21.75 19.4296C21.75 20.0085 21.2789 20.4796 20.7 20.4796Z" fill="currentColor"/>
</g>
</svg>
