<svg xmlns="http://www.w3.org/2000/svg" xmlns:xlink="http://www.w3.org/1999/xlink" fill="none" version="1.1" width="40" height="40" viewBox="0 0 40 40"><g><g></g><g><path d="M29.1129,10.256381C28.7632,9.9598474,28.214,9.9174189,27.6461,10.145414L27.6451,10.145414C27.0479,10.385065,10.73855,17.38064,10.07461,17.66645C9.953853,17.70841,8.899202,18.10192,9.0078372,18.97847C9.104817,19.76876,9.952454,20.0961,10.05596,20.1338L14.202300000000001,21.5536C14.47738,22.4693,15.49147,25.8477,15.71574,26.5694C15.85561,27.0194,16.08361,27.6106,16.48318,27.7323C16.8338,27.8675,17.18255,27.7439,17.40821,27.5667L19.943199999999997,25.2155L24.0355,28.4069L24.1329,28.4652C24.410800000000002,28.5883,24.677,28.6498,24.9311,28.6498C25.1274,28.6498,25.3158,28.613,25.4957,28.5393C26.1089,28.2876,26.3541,27.7033,26.3797,27.6371L29.4365,11.74883C29.623,10.900268,29.3637,10.468523,29.1129,10.256381ZM17.85908,22.1214L16.46033,25.851399999999998L15.061589999999999,21.1889L25.7853,13.26274L17.85908,22.1214Z" fill="currentColor" fill-opacity="1"/></g></g></svg>