<svg xmlns="http://www.w3.org/2000/svg" width="40" height="40" viewBox="0 0 40 40"><defs><style>.a{fill:none;}.b{fill:currentColor;}</style></defs><g transform="translate(-400 -3122)"><rect class="a" width="40" height="40" rx="8" transform="translate(400 3122)"/><g transform="translate(-984 2505)"><rect class="a" width="22" height="22" transform="translate(1393 626)"/><path class="b" d="M86.243,73.635c.011.173.011.353.011.53a11.641,11.641,0,0,1-17.91,9.792,8.764,8.764,0,0,0,.986.052A8.2,8.2,0,0,0,74.4,82.264a4.088,4.088,0,0,1-3.82-2.834,4.47,4.47,0,0,0,1.844-.074,4.085,4.085,0,0,1-3.271-4.011v-.052A4.09,4.09,0,0,0,71,75.814a4.089,4.089,0,0,1-1.822-3.4,4.006,4.006,0,0,1,.556-2.061,11.6,11.6,0,0,0,8.427,4.272,4.1,4.1,0,0,1,6.977-3.739,8.074,8.074,0,0,0,2.594-.983,4.068,4.068,0,0,1-1.8,2.248,8.083,8.083,0,0,0,2.355-.637A8.565,8.565,0,0,1,86.243,73.635Z" transform="translate(1325.682 559.306)"/></g></g></svg>